# xmcd
#
# Track frame offsets:
# 182
# 16110
# 27820
# 45925
# 61155
# 79790
# 97132
# 113937
# 129262
# 143967
# 152825
# 172300
# 187402
# 206027
# 221967
# 231267
# 239292
# 249340
# 261785
# 277295
#
# Disc length: 3976 seconds
#
#
# Revision: 1
# Processed by: cddbd v1.5.1PL2 Copyright (c) Steve Scherf et al.
# Submitted via: FreeRIP 2.945 
#
DISCID=2b0f8614
DTITLE=Golden Sax - 20 Seductive Favorites
DYEAR=1900
DGENRE=Jazz+Funk
TTITLE0=Feelings
TTITLE1=Ti Amo
TTITLE2=Memory
TTITLE3=Words
TTITLE4=Guantanamera
TTITLE5=Missing You
TTITLE6=We've Got Tonight
TTITLE7=Velvet Silk
TTITLE8=The Way We Were
TTITLE9=Smile Again
TTITLE10=Just The Way You Are
TTITLE11=Your Inviting Eyes
TTITLE12=Up Where We Belong
TTITLE13=My Sax And Me
TTITLE14=Lovely Conchita
TTITLE15=A Perfect Day
TTITLE16=Habanera
TTITLE17=Walking Back
TTITLE18=Ma Cherie
TTITLE19=Bolero Del Noche
EXTD=
EXTT0=
EXTT1=
EXTT2=
EXTT3=
EXTT4=
EXTT5=
EXTT6=
EXTT7=
EXTT8=
EXTT9=
EXTT10=
EXTT11=
EXTT12=
EXTT13=
EXTT14=
EXTT15=
EXTT16=
EXTT17=
EXTT18=
EXTT19=
PLAYORDER=
